<svg width="256" height="256" viewBox="0 0 256 256" fill="none" xmlns="http://www.w3.org/2000/svg">
<g clip-path="url(#clip0_791_4875)">
<path d="M127.5 210C173.063 210 210 173.063 210 127.5C210 81.9366 173.063 45 127.5 45C81.9366 45 45 81.9366 45 127.5C45 173.063 81.9366 210 127.5 210Z" fill="white"/>
<path d="M188.786 153.114L162.386 126.714L188.786 100.314C192.086 97.0144 192.086 91.8287 188.786 88.5287L165.371 65.1144C162.071 61.8144 156.886 61.8144 153.586 65.1144L127.186 91.5144L100.786 65.1144C97.4858 61.8144 92.3001 61.8144 89.0001 65.1144L65.5858 88.5287C62.2858 91.8287 62.2858 97.0144 65.5858 100.314L91.9858 126.714L65.5858 153.114C62.2858 156.414 62.2858 161.6 65.5858 164.9L89.0001 188.314C92.3001 191.614 97.4858 191.614 100.786 188.314L127.186 161.914L153.586 188.314C156.886 191.614 162.071 191.614 165.371 188.314L188.786 164.9C192.086 161.6 192.086 156.414 188.786 153.114Z" fill="#FF003A"/>
</g>
<defs>
<clipPath id="clip0_791_4875">
<rect width="256" height="256" fill="white"/>
</clipPath>
</defs>
</svg>
