<svg width="120" height="50" viewBox="0 0 120 50" fill="none" xmlns="http://www.w3.org/2000/svg">
<g clip-path="url(#clip0_8422_29006)">
<mask id="mask0_8422_29006" style="mask-type:luminance" maskUnits="userSpaceOnUse" x="0" y="0" width="120" height="50">
<path d="M120 0H0V50H120V0Z" fill="white"/>
</mask>
<g mask="url(#mask0_8422_29006)">
<path fill-rule="evenodd" clip-rule="evenodd" d="M0.171875 31.2927V28.8353H6.65763V31.6952C6.65763 34.3129 7.66903 35.6224 9.6904 35.6224H9.71604C11.7189 35.6224 12.7218 34.3171 12.7218 31.708C12.7218 30.2171 12.2901 28.8197 11.424 27.5144C10.5594 26.2091 9.52516 25.0158 8.32145 23.9345L5.07074 20.5799C3.72743 19.4064 2.6035 17.9523 1.69894 16.219C0.792958 14.4843 0.339967 12.564 0.339967 10.458C0.339967 7.21675 1.19467 4.73092 2.90407 2.99765C4.61205 1.26437 6.93399 0.398438 9.86704 0.398438C12.8001 0.398438 15.0522 1.26437 16.6249 2.99623C18.1975 4.72809 18.9839 7.21392 18.9839 10.4537V11.7392H13.0024V10.064C13.0024 7.43784 11.9454 6.12406 9.83 6.12406C7.71461 6.12406 6.65763 7.43926 6.65763 10.0668C6.65763 11.1666 6.8884 12.2154 7.34852 13.2131C7.80863 14.2108 8.4055 15.1093 9.13912 15.9115C9.87273 16.7122 10.6819 17.5045 11.5651 18.2868C12.4483 19.0705 13.3215 19.8911 14.1819 20.7485C15.0423 21.6059 15.8386 22.5229 16.5693 23.5022C17.2987 24.4801 17.8927 25.6366 18.3514 26.9688C18.8101 28.3024 19.0394 29.7508 19.0394 31.3168C19.0394 34.5495 18.2346 37.0297 16.6249 38.7573C15.0152 40.4849 12.7431 41.3494 9.80863 41.3494C6.87416 41.3494 4.5337 40.4835 2.78869 38.7516C1.04367 37.0198 0.171875 34.5325 0.171875 31.2927Z" fill="black"/>
<path fill-rule="evenodd" clip-rule="evenodd" d="M28.9505 20.147H31.9548C32.9833 20.147 33.7553 19.8579 34.271 19.2811C34.7853 18.7043 35.0431 17.7264 35.0431 16.3474V10.3426C35.0431 8.96362 34.7853 7.9914 34.271 7.42309C33.7553 6.85478 32.9833 6.57133 31.9548 6.57133H28.9505V20.147ZM22.6328 40.901V0.845703H31.9405C38.2197 0.845703 41.3608 4.15495 41.3608 10.772V15.9747C41.3608 22.5733 38.2226 25.8741 31.9477 25.8741H28.9505V40.901H22.6328Z" fill="black"/>
<path fill-rule="evenodd" clip-rule="evenodd" d="M50.6224 18.8894H53.0925C54.366 18.8894 55.3161 18.5634 55.9429 17.9115C56.5697 17.2596 56.8831 16.1711 56.8831 14.6434V10.7049C56.9016 7.94976 55.8347 6.57079 53.6822 6.57079H50.6224V18.8894ZM44.3047 40.9004V0.84375H53.8375C57.0882 0.84375 59.4629 1.59914 60.9572 3.10849C62.4529 4.61784 63.2007 6.93785 63.2007 10.0685V13.2261C63.2007 17.3446 61.8218 20.0558 59.064 21.3596C61.8589 22.5345 63.2563 25.3761 63.2563 29.8857V36.0492V36.3001C63.2563 38.3452 63.4814 39.8786 63.9301 40.9004H57.5255C57.1537 39.7666 56.9586 38.1312 56.9401 35.9926V29.7185C56.9401 27.8973 56.6167 26.5906 55.9714 25.8012C55.3247 25.0104 54.272 24.6164 52.8119 24.6164H50.6224V40.9004H44.3047Z" fill="black"/>
<path fill-rule="evenodd" clip-rule="evenodd" d="M67.4141 40.9004H73.7317V0.84375H67.4141V40.9004Z" fill="black"/>
<path fill-rule="evenodd" clip-rule="evenodd" d="M84.6536 35.1754H88.2761C89.3801 35.1754 90.2035 34.882 90.7462 34.2953C91.2889 33.7085 91.561 32.6895 91.561 31.2369V27.7448C91.561 25.9194 91.2476 24.6538 90.6194 23.9466C89.9926 23.238 88.9499 22.8851 87.4898 22.8851H84.6536V35.1754ZM84.6536 17.1581H87.1351C88.4129 17.1581 89.3673 16.8321 89.9969 16.1802C90.628 15.5283 90.9428 14.4483 90.9428 12.9404V10.7054C90.9613 7.9503 89.8901 6.57133 87.7277 6.57133H84.6536V17.1581ZM78.3359 40.9024V0.845703H87.8829C91.1394 0.845703 93.5169 1.59967 95.014 3.10761C96.5112 4.61555 97.2604 6.93414 97.2604 10.0634V11.4877C97.2604 15.6034 95.8943 18.2947 93.1607 19.5603C96.306 20.789 97.8773 23.649 97.8773 28.136V31.4041C97.8773 34.4951 97.0639 36.852 95.4357 38.4719C93.806 40.0918 91.42 40.9024 88.2761 40.9024H78.3359Z" fill="black"/>
<path fill-rule="evenodd" clip-rule="evenodd" d="M101.668 40.9004V0.84375H118.907V6.57079H107.986V17.7159H116.661V23.4415H107.986V35.1734H118.907V40.9004H101.668Z" fill="black"/>
<path fill-rule="evenodd" clip-rule="evenodd" d="M0 49.0592H118.996V43.498H0V49.0592Z" fill="black"/>
</g>
</g>
<defs>
<clipPath id="clip0_8422_29006">
<rect width="120" height="50" fill="white"/>
</clipPath>
</defs>
</svg>
