<svg width="264" height="82" viewBox="0 0 264 82" fill="none" xmlns="http://www.w3.org/2000/svg">
<g clip-path="url(#clip0_152_662)">
<path d="M220.986 81.925L209.794 59.563L190.771 82H171.691L202.883 45.418L188.179 15.2519H206.395L215.747 34.5372L245.606 0H263.821L222.432 47.8755L239.202 81.9062H220.986V81.925Z" fill="#FFDD00"/>
<path d="M37.7211 4.70887L30.5099 19.942H49.4016L42.1905 61.1577C41.6271 64.2531 38.6412 66.8795 35.43 66.8795H7.91878L0.820312 82.0001H33.139C44.4815 82.0001 55.3733 72.7327 57.3263 61.4016L67.4107 4.72763H37.7211V4.70887ZM116.668 15.2332H91.3727C83.016 15.2332 74.8847 22.0056 73.1007 30.4664L65.4576 66.8608C63.6924 75.2277 69.0632 81.9813 77.4387 81.9813H116.311L109.269 66.8608H83.6545C81.9456 66.8608 80.8377 65.4913 81.232 63.7654L87.5418 33.4304C87.9549 31.7233 89.6075 30.4476 91.3163 30.4476H110.546C112.255 30.4476 113.25 31.7045 112.856 33.4304L111.335 40.972H90.8844L87.5981 56.2051H123.316L128.78 30.4476C130.564 21.9681 125.175 15.2145 116.706 15.2145L116.668 15.2332ZM146.996 63.8029L152.836 30.5039H183.653L175.972 15.2708H155.503L158.245 0.168945H143.109L131.297 66.8983C129.813 75.2653 135.428 82.0189 143.785 82.0189H158.695L171.352 66.9171H149.531C147.822 66.9171 146.677 65.5476 147.015 63.8217L146.996 63.8029Z" fill="white"/>
</g>
<defs>
<clipPath id="clip0_152_662">
<rect width="263" height="82" fill="white" transform="translate(0.820312)"/>
</clipPath>
</defs>
</svg>
